<svg width="176" height="191" fill="none" xmlns="http://www.w3.org/2000/svg"><path fill-rule="evenodd" clip-rule="evenodd" d="M6 3a3 3 0 11-6 0 3 3 0 116 0zm0 15a3 3 0 11-6 0 3 3 0 116 0zm16 0a3 3 0 11-6 0 3 3 0 116 0zm15 0a3 3 0 11-6 0 3 3 0 116 0zm15 0a3 3 0 11-6 0 3 3 0 116 0zm16 0a3 3 0 11-6 0 3 3 0 116 0zm15 0a3 3 0 11-6 0 3 3 0 116 0zm16 0a3 3 0 11-6 0 3 3 0 116 0zm15 0a3 3 0 11-6 0 3 3 0 116 0zm16 0a3 3 0 11-6 0 3 3 0 116 0zm15 0a3 3 0 11-6 0 3 3 0 116 0zm15 0a3 3 0 11-6 0 3 3 0 116 0zm16 0a3 3 0 11-6 0 3 3 0 116 0zM6 34a3 3 0 11-6 0 3 3 0 116 0zm16 0a3 3 0 11-6 0 3 3 0 116 0zm15 0a3 3 0 11-6 0 3 3 0 116 0zm15 0a3 3 0 11-6 0 3 3 0 116 0zm16 0a3 3 0 11-6 0 3 3 0 116 0zm15 0a3 3 0 11-6 0 3 3 0 116 0zm16 0a3 3 0 11-6 0 3 3 0 116 0zm15 0a3 3 0 11-6 0 3 3 0 116 0zm16 0a3 3 0 11-6 0 3 3 0 116 0zm15 0a3 3 0 11-6 0 3 3 0 116 0zm15 0a3 3 0 11-6 0 3 3 0 116 0zm16 0a3 3 0 11-6 0 3 3 0 116 0zM6 49a3 3 0 11-6 0 3 3 0 116 0zm16 0a3 3 0 11-6 0 3 3 0 116 0zm15 0a3 3 0 11-6 0 3 3 0 116 0zm15 0a3 3 0 11-6 0 3 3 0 116 0zm16 0a3 3 0 11-6 0 3 3 0 116 0zm15 0a3 3 0 11-6 0 3 3 0 116 0zm16 0a3 3 0 11-6 0 3 3 0 116 0zm15 0a3 3 0 11-6 0 3 3 0 116 0zm16 0a3 3 0 11-6 0 3 3 0 116 0zm15 0a3 3 0 11-6 0 3 3 0 116 0zm15 0a3 3 0 11-6 0 3 3 0 116 0zm16 0a3 3 0 11-6 0 3 3 0 116 0zM6 65a3 3 0 11-6 0 3 3 0 116 0zm16 0a3 3 0 11-6 0 3 3 0 116 0zm15 0a3 3 0 11-6 0 3 3 0 116 0zm15 0a3 3 0 11-6 0 3 3 0 116 0zm16 0a3 3 0 11-6 0 3 3 0 116 0zm15 0a3 3 0 11-6 0 3 3 0 116 0zm16 0a3 3 0 11-6 0 3 3 0 116 0zm15 0a3 3 0 11-6 0 3 3 0 116 0zm16 0a3 3 0 11-6 0 3 3 0 116 0zm15 0a3 3 0 11-6 0 3 3 0 116 0zm15 0a3 3 0 11-6 0 3 3 0 116 0zm16 0a3 3 0 11-6 0 3 3 0 116 0zM6 80a3 3 0 11-6 0 3 3 0 116 0zm16 0a3 3 0 11-6 0 3 3 0 116 0zm15 0a3 3 0 11-6 0 3 3 0 116 0zm15 0a3 3 0 11-6 0 3 3 0 116 0zm16 0a3 3 0 11-6 0 3 3 0 116 0zm15 0a3 3 0 11-6 0 3 3 0 116 0zm16 0a3 3 0 11-6 0 3 3 0 116 0zm15 0a3 3 0 11-6 0 3 3 0 116 0zm16 0a3 3 0 11-6 0 3 3 0 116 0zm15 0a3 3 0 11-6 0 3 3 0 116 0zm15 0a3 3 0 11-6 0 3 3 0 116 0zm16 0a3 3 0 11-6 0 3 3 0 116 0zM6 96a3 3 0 11-6 0 3 3 0 116 0zm16 0a3 3 0 11-6 0 3 3 0 116 0zm15 0a3 3 0 11-6 0 3 3 0 116 0zm15 0a3 3 0 11-6 0 3 3 0 116 0zm16 0a3 3 0 11-6 0 3 3 0 116 0zm15 0a3 3 0 11-6 0 3 3 0 116 0zm16 0a3 3 0 11-6 0 3 3 0 116 0zm15 0a3 3 0 11-6 0 3 3 0 116 0zm16 0a3 3 0 11-6 0 3 3 0 116 0zm15 0a3 3 0 11-6 0 3 3 0 116 0zm15 0a3 3 0 11-6 0 3 3 0 116 0zm16 0a3 3 0 11-6 0 3 3 0 116 0zM6 111a3 3 0 11-6 0 3 3 0 116 0zm16 0a3 3 0 11-6 0 3 3 0 116 0zm15 0a3 3 0 11-6 0 3 3 0 116 0zm15 0a3 3 0 11-6 0 3 3 0 116 0zm16 0a3 3 0 11-6 0 3 3 0 116 0zm15 0a3 3 0 11-6 0 3 3 0 116 0zm16 0a3 3 0 11-6 0 3 3 0 116 0zm15 0c0 1.658-1.342 3-3 3s-3-1.342-3-3 1.342-3 3-3 3 1.342 3 3zm16 0c0 1.658-1.342 3-3 3s-3-1.342-3-3 1.342-3 3-3 3 1.342 3 3zm15 0c0 1.658-1.342 3-3 3s-3-1.342-3-3 1.342-3 3-3 3 1.342 3 3zm15 0c0 1.658-1.342 3-3 3s-3-1.342-3-3 1.342-3 3-3 3 1.342 3 3zm16 0c0 1.658-1.342 3-3 3s-3-1.342-3-3 1.342-3 3-3 3 1.342 3 3zM6 126a3 3 0 11-6 0 3 3 0 116 0zm16 0a3 3 0 11-6 0 3 3 0 116 0zm15 0a3 3 0 11-6 0 3 3 0 116 0zm15 0a3 3 0 11-6 0 3 3 0 116 0zm16 0a3 3 0 11-6 0 3 3 0 116 0zm15 0a3 3 0 11-6 0 3 3 0 116 0zm16 0a3 3 0 11-6 0 3 3 0 116 0zm15 0c0 1.658-1.342 3-3 3s-3-1.342-3-3 1.342-3 3-3 3 1.342 3 3zm16 0c0 1.658-1.342 3-3 3s-3-1.342-3-3 1.342-3 3-3 3 1.342 3 3zm15 0c0 1.658-1.342 3-3 3s-3-1.342-3-3 1.342-3 3-3 3 1.342 3 3zm15 0c0 1.658-1.342 3-3 3s-3-1.342-3-3 1.342-3 3-3 3 1.342 3 3zm16 0c0 1.658-1.342 3-3 3s-3-1.342-3-3 1.342-3 3-3 3 1.342 3 3zM6 142a3 3 0 11-6 0 3 3 0 116 0zm16 0a3 3 0 11-6 0 3 3 0 116 0zm15 0a3 3 0 11-6 0 3 3 0 116 0zm15 0a3 3 0 11-6 0 3 3 0 116 0zm16 0a3 3 0 11-6 0 3 3 0 116 0zm15 0a3 3 0 11-6 0 3 3 0 116 0zm16 0a3 3 0 11-6 0 3 3 0 116 0zm15 0c0 1.658-1.342 3-3 3s-3-1.342-3-3 1.342-3 3-3 3 1.342 3 3zm16 0c0 1.658-1.342 3-3 3s-3-1.342-3-3 1.342-3 3-3 3 1.342 3 3zm15 0c0 1.658-1.342 3-3 3s-3-1.342-3-3 1.342-3 3-3 3 1.342 3 3zm15 0c0 1.658-1.342 3-3 3s-3-1.342-3-3 1.342-3 3-3 3 1.342 3 3zm16 0c0 1.658-1.342 3-3 3s-3-1.342-3-3 1.342-3 3-3 3 1.342 3 3zM6 157a3 3 0 11-6 0 3 3 0 116 0zm16 0a3 3 0 11-6 0 3 3 0 116 0zm15 0a3 3 0 11-6 0 3 3 0 116 0zm15 0a3 3 0 11-6 0 3 3 0 116 0zm16 0a3 3 0 11-6 0 3 3 0 116 0zm15 0a3 3 0 11-6 0 3 3 0 116 0zm16 0a3 3 0 11-6 0 3 3 0 116 0zm15 0c0 1.658-1.342 3-3 3s-3-1.342-3-3 1.342-3 3-3 3 1.342 3 3zm16 0c0 1.658-1.342 3-3 3s-3-1.342-3-3 1.342-3 3-3 3 1.342 3 3zm15 0c0 1.658-1.342 3-3 3s-3-1.342-3-3 1.342-3 3-3 3 1.342 3 3zm15 0c0 1.658-1.342 3-3 3s-3-1.342-3-3 1.342-3 3-3 3 1.342 3 3zm16 0c0 1.658-1.342 3-3 3s-3-1.342-3-3 1.342-3 3-3 3 1.342 3 3zM6 173a3 3 0 11-6 0 3 3 0 116 0zm16 0a3 3 0 11-6 0 3 3 0 116 0zm15 0a3 3 0 11-6 0 3 3 0 116 0zm15 0a3 3 0 11-6 0 3 3 0 116 0zm16 0a3 3 0 11-6 0 3 3 0 116 0zm15 0a3 3 0 11-6 0 3 3 0 116 0zm16 0a3 3 0 11-6 0 3 3 0 116 0zm15 0c0 1.658-1.342 3-3 3s-3-1.342-3-3 1.342-3 3-3 3 1.342 3 3zm16 0c0 1.658-1.342 3-3 3s-3-1.342-3-3 1.342-3 3-3 3 1.342 3 3zm15 0c0 1.658-1.342 3-3 3s-3-1.342-3-3 1.342-3 3-3 3 1.342 3 3zm15 0c0 1.658-1.342 3-3 3s-3-1.342-3-3 1.342-3 3-3 3 1.342 3 3zm16 0c0 1.658-1.342 3-3 3s-3-1.342-3-3 1.342-3 3-3 3 1.342 3 3zM6 188a3 3 0 11-6 0 3 3 0 116 0zm16 0a3 3 0 11-6 0 3 3 0 116 0zm15 0a3 3 0 11-6 0 3 3 0 116 0zm15 0a3 3 0 11-6 0 3 3 0 116 0zm16 0a3 3 0 11-6 0 3 3 0 116 0zm15 0a3 3 0 11-6 0 3 3 0 116 0zm16 0a3 3 0 11-6 0 3 3 0 116 0zm15 0c0 1.658-1.342 3-3 3s-3-1.342-3-3 1.342-3 3-3 3 1.342 3 3zm16 0c0 1.658-1.342 3-3 3s-3-1.342-3-3 1.342-3 3-3 3 1.342 3 3zm15 0c0 1.658-1.342 3-3 3s-3-1.342-3-3 1.342-3 3-3 3 1.342 3 3zm15 0c0 1.658-1.342 3-3 3s-3-1.342-3-3 1.342-3 3-3 3 1.342 3 3zm16 0c0 1.658-1.342 3-3 3s-3-1.342-3-3 1.342-3 3-3 3 1.342 3 3zM22 3a3 3 0 11-6 0 3 3 0 116 0zm15 0a3 3 0 11-6 0 3 3 0 116 0zm15 0a3 3 0 11-6 0 3 3 0 116 0zm16 0a3 3 0 11-6 0 3 3 0 116 0zm15 0a3 3 0 11-6 0 3 3 0 116 0zm16 0a3 3 0 11-6 0 3 3 0 116 0zm15 0a3 3 0 11-6 0 3 3 0 116 0zm16 0a3 3 0 11-6 0 3 3 0 116 0zm15 0a3 3 0 11-6 0 3 3 0 116 0zm15 0a3 3 0 11-6 0 3 3 0 116 0zm16 0a3 3 0 11-6 0 3 3 0 116 0z" fill="#AB9E7B"/></svg>